<?xml version="1.0" standalone="no"?>
<!DOCTYPE svg PUBLIC "-//W3C//DTD SVG 20010904//EN"
 "http://www.w3.org/TR/2001/REC-SVG-20010904/DTD/svg10.dtd">
<svg version="1.0" xmlns="http://www.w3.org/2000/svg"
 width="512.000000pt" height="512.000000pt" viewBox="0 0 512.000000 512.000000"
 preserveAspectRatio="xMidYMid meet">
<metadata>
Created by potrace 1.14, written by Peter Selinger 2001-2017
</metadata>
<g transform="translate(0.000000,512.000000) scale(0.100000,-0.100000)"
fill="#000000" stroke="none">
<path d="M2379 5116 c-2 -2 -38 -6 -79 -10 -64 -6 -207 -29 -315 -51 -16 -3
-77 -19 -134 -36 -422 -121 -794 -342 -1110 -660 -36 -36 -42 -37 -92 -24 -35
9 -42 -5 -29 -57 10 -34 9 -44 -2 -52 -7 -6 -29 -31 -48 -56 -19 -25 -37 -47
-40 -50 -7 -7 -45 -61 -105 -150 -222 -327 -370 -741 -413 -1150 -14 -140 -7
-504 12 -615 3 -16 8 -43 10 -60 31 -223 132 -528 249 -753 l38 -73 0 -244 c0
-135 5 -261 10 -280 13 -45 59 -98 107 -121 31 -15 65 -19 217 -20 99 -1 185
-2 190 -3 6 -1 26 -15 45 -31 186 -162 453 -326 685 -423 175 -72 413 -145
535 -162 212 -31 249 -33 490 -30 267 3 385 16 575 65 180 47 435 141 540 200
185 104 320 194 462 308 81 64 99 74 137 76 25 1 52 8 60 15 19 16 21 52 4 69
-9 9 -6 17 13 35 24 23 92 97 141 155 246 285 472 756 533 1111 3 19 8 37 10
40 5 10 18 101 32 226 10 91 10 409 1 505 -42 416 -182 809 -415 1157 -74 113
-82 128 -87 186 -10 95 -38 181 -91 277 -29 52 -131 155 -196 196 -92 60 -202
95 -314 101 -82 5 -96 9 -155 43 -177 103 -392 195 -580 249 -121 34 -257 63
-360 77 -25 3 -56 8 -70 10 -28 6 -456 15 -461 10z"/>
</g>
</svg>
